<svg xmlns="http://www.w3.org/2000/svg" width="20.335" height="44.092" viewBox="0 0 20.335 44.092">
  <g id="Group_3" data-name="Group 3" transform="translate(-226.124 -266.804)">
    <g id="Group_2" data-name="Group 2" transform="translate(226.124 266.804)">
      <path id="Path_3" data-name="Path 3" d="M235,281.9a7.244,7.244,0,0,1,5.045-5.873c.183-.052,3.63-.965,6.1,1.28,2.4,2.179,2.272,5.88,1.2,8.131-1.008,2.126-2.51,2.227-4.367,4.442-2.052,2.448-1.694,5.685-1.619,7.943" transform="translate(-231.393 -272.146)" fill="#fff"/>
      <path id="Path_4" data-name="Path 4" d="M232.438,292.606c-.006-.2-.015-.4-.024-.61-.1-2.428-.28-6.493,2.5-9.8A15.984,15.984,0,0,1,237.7,279.6c.76-.579.895-.7,1.071-1.07.478-1.008.625-2.963-.361-3.859a3.369,3.369,0,0,0-2.678-.457,3.6,3.6,0,0,0-2.4,2.948l-7.214-1.207a10.939,10.939,0,0,1,7.658-8.789c.561-.159,5.639-1.466,9.553,2.094,3.638,3.308,3.784,8.744,2.048,12.4a9.588,9.588,0,0,1-3.248,3.755,8.992,8.992,0,0,0-1.62,1.469c-.951,1.135-.871,2.994-.794,4.791.01.235.02.463.027.681Z" transform="translate(-226.124 -266.804)"/>
    </g>
    <path id="Path_5" data-name="Path 5" d="M249.379,337.49l-1.516,7.156-3.117.618c-1.178-3.755-2.471-7.969-2.276-7.774Z" transform="translate(-9.693 -41.959)" stroke="#000" stroke-miterlimit="10" stroke-width="1"/>
    <path id="Path_6" data-name="Path 6" d="M251.217,355.11l-1.329,6.254s-.691-2.158-1.508-4.746q-.14-.439-.28-.89Z" transform="translate(-13.046 -52.422)" fill="#fff" stroke="#000" stroke-miterlimit="10" stroke-width="1"/>
  </g>
</svg>
